<svg width="117" height="25" viewBox="0 0 117 25" fill="none" xmlns="http://www.w3.org/2000/svg">
<path d="M48.5733 8.94687C48.5733 6.90113 48.5846 4.85613 48.5655 2.81112C48.5606 2.30838 48.6683 2.03021 49.2205 2.15915C49.289 2.16897 49.3585 2.17116 49.4275 2.16568C50.9317 2.19393 50.931 2.19393 50.9317 3.76662C50.9317 7.26988 50.9317 10.7729 50.9317 14.2757C50.9317 15.7447 51.357 17.0501 52.4713 18.0426C54.1825 19.5675 57.7487 19.2233 58.8411 16.5829C59.596 14.7581 59.5769 12.9826 58.2265 11.4526C56.8024 9.8379 54.639 9.60751 52.606 10.734C51.878 11.1368 51.8688 11.1317 51.861 10.3153C51.861 10.2921 51.861 10.2682 51.861 10.2428C51.8497 8.44049 51.8355 8.32899 53.5622 7.97254C55.6101 7.55532 57.6289 7.79867 59.3224 9.17506C61.1697 10.6789 61.9204 12.7058 61.6212 15.1007C61.3072 17.6137 60.1829 19.6493 57.8288 20.6382C53.4226 22.4897 48.7888 19.6696 48.5924 14.7298C48.5159 12.805 48.5804 10.8745 48.5804 8.94687H48.5733ZM95.2666 17.4105C95.4246 18.2791 95.3375 19.0463 95.3303 19.8078C95.3303 20.0141 95.1262 20.0973 94.9767 20.2059C93.615 21.1737 92.0953 21.4082 90.521 21.0543C87.9379 20.4752 86.4338 18.7191 85.7864 16.156C85.2488 14.0157 85.5777 12.0251 86.9057 10.2452C87.9918 8.78889 89.5258 8.13238 91.2165 7.92028C93.5006 7.63071 95.6079 8.16423 97.2615 9.90432C98.1448 10.8155 98.6427 12.0457 98.6479 13.3295C98.6707 15.6537 98.6447 17.9787 98.6701 20.3029C98.6759 20.8422 98.4841 20.9725 97.9869 20.9717C96.278 20.9674 96.2761 20.9855 96.2748 19.2244C96.2748 17.5104 96.1974 15.7913 96.3021 14.0852C96.4126 12.2879 95.1912 10.6759 93.4642 10.2213C91.2132 9.62779 88.9649 10.5905 88.1641 12.7787C87.3535 14.9943 88.1283 17.7007 90.4644 18.6895C91.8665 19.2808 93.3004 19.0934 94.523 18.0308C94.7466 17.8397 94.9722 17.6573 95.2666 17.4105ZM77.0361 7.7879C80.8327 7.79587 83.7174 10.6188 83.72 14.3291C83.72 18.1213 80.8776 21.1654 77.3494 21.1437C73.1952 21.1211 70.4015 18.3337 70.3307 14.2987C70.28 11.1103 73.3902 7.58271 77.0361 7.7879ZM77.1069 18.8716C79.7141 19.0166 81.2344 17.2441 81.2123 14.1696C81.1961 11.7932 79.1089 9.99607 76.9808 9.97653C74.6701 9.95478 72.8176 12.192 72.8136 14.4081C72.8072 16.9498 74.4653 19.0311 77.1056 18.8716H77.1069ZM115.155 20.9934C111.843 21.2166 109.643 19.2602 108.627 16.6314C107.578 13.9109 109.091 10.2263 111.639 8.91197C113.24 8.08577 114.897 8.18258 116.574 8.18111C116.619 8.18111 116.682 8.17028 116.708 8.19627C117.242 8.74222 116.862 9.424 116.949 10.035C117.01 10.4603 116.676 10.4372 116.398 10.4386C115.92 10.4386 115.441 10.4531 114.963 10.4386C112.814 10.3765 111.121 11.9805 110.837 14.111C110.546 16.2775 111.94 18.1227 114.142 18.6261C114.888 18.7965 115.639 18.7337 116.388 18.7257C116.839 18.7207 116.968 18.8897 116.977 19.3403C117.009 20.9955 117.023 20.9948 115.426 20.9927L115.155 20.9934ZM103.332 9.39913C104.278 8.39986 105.307 7.79554 106.638 7.84913C107.061 7.86582 107.297 7.96216 107.242 8.44262C107.236 8.5599 107.236 8.67752 107.242 8.79481C107.242 9.97234 107.242 9.95425 106.098 10.147C104.639 10.3963 104.008 11.5166 103.548 12.7999C103.395 13.2267 103.37 13.6695 103.37 14.1166C103.37 16.184 103.354 18.2514 103.377 20.3187C103.383 20.834 103.245 21.005 102.725 21.0086C101.021 21.0202 101.022 21.0427 101.023 19.2992C101.023 15.8209 101.035 12.3426 101.01 8.86868C101.006 8.27234 101.194 8.0484 101.752 8.13244C101.797 8.1361 101.843 8.1361 101.888 8.13244C103.112 8.12812 103.112 8.12812 103.332 9.39913ZM67.2016 14.6001C67.2016 16.5304 67.1905 18.4615 67.21 20.3912C67.2139 20.8409 67.0949 21.044 66.6211 21.0063C66.2025 20.9729 65.7826 20.9729 65.364 21.0063C64.8541 21.0455 64.7386 20.809 64.74 20.3368C64.7534 16.4529 64.7534 12.5687 64.74 8.68424C64.74 8.22799 64.8835 8.06908 65.3393 8.05751C67.1977 8.01177 67.1996 7.99873 67.2042 9.87107C67.2081 11.4481 67.2042 13.0252 67.2042 14.6023L67.2016 14.6001ZM67.405 5.20885C67.405 6.06117 66.8857 6.58818 66.0348 6.5825C65.2178 6.57681 64.5608 5.95889 64.5452 5.18257C64.5324 4.43466 65.1684 3.80323 65.9503 3.79045C66.1395 3.78562 66.3273 3.81872 66.5035 3.88781C66.6796 3.9569 66.8408 4.06058 66.976 4.19274C67.1119 4.32491 67.2191 4.48289 67.2932 4.6574C67.3667 4.8319 67.405 5.01939 67.405 5.20885ZM40.9071 4.84517C37.1027 1.81126 31.6329 2.32722 28.2224 5.81724L26.0267 8.06323L29.9267 12.0526L32.1861 9.74076C33.6031 8.29195 35.8716 8.03198 37.4738 9.2607C37.9738 9.64155 38.3798 10.1366 38.6595 10.7064C38.9393 11.2762 39.085 11.905 39.085 12.5426C39.085 13.1802 38.9393 13.809 38.6595 14.3789C38.3798 14.9487 37.9738 15.4437 37.4738 15.8245C35.8716 17.0533 33.6031 16.792 32.1861 15.3445L29.575 12.6756L29.445 12.5426L25.545 8.55326L25.415 8.42028L20.8189 3.71552C19.6862 2.55577 18.3408 1.63639 16.8598 1.01018C15.3787 0.383981 13.7914 0.0633038 12.1888 0.0665528H3.10115C2.27848 0.0678104 1.4899 0.402876 0.908486 0.998235C0.327077 1.59359 0 2.40059 0 3.24211V12.9549L0.0091 12.9435C0.0602828 14.6968 0.473296 16.4191 1.22104 17.9976C1.96879 19.5761 3.03436 20.9749 4.34785 22.1025C9.22285 26.3079 16.4925 25.7966 21.0041 21.1842L25.5541 16.53L28.2289 19.266C31.6394 22.7547 37.1079 23.272 40.9123 20.2394C42.0613 19.3297 42.9915 18.1628 43.6314 16.8284C44.2712 15.4939 44.604 14.0273 44.604 12.541C44.604 11.0547 44.2712 9.58803 43.6314 8.25359C42.9915 6.91915 42.0613 5.75231 40.9123 4.84251L40.9071 4.84517ZM16.9221 17.3804C15.9902 18.341 14.8 18.9963 13.503 19.2631C12.206 19.5298 10.8607 19.3958 9.63833 18.8783C8.41594 18.3606 7.37165 17.4828 6.63839 16.3564C5.90511 15.23 5.51597 13.9059 5.52041 12.5526V7.59381C5.52041 7.09189 5.71533 6.61054 6.06223 6.25556C6.40914 5.90058 6.87967 5.70106 7.37035 5.70089H12.155C13.0386 5.69512 13.9146 5.86914 14.7319 6.21284C15.5491 6.55653 16.2915 7.06303 16.9156 7.70286L21.645 12.5413L16.9221 17.3804Z" fill="white"/>
<path d="M15.3401 14.1989V10.8838C15.3401 10.7663 15.3627 10.65 15.4066 10.5415C15.4506 10.433 15.515 10.3344 15.5961 10.2514C15.6773 10.1684 15.7737 10.1025 15.8797 10.0576C15.9858 10.0126 16.0995 9.98948 16.2143 9.98948C16.3291 9.98948 16.4428 10.0126 16.5489 10.0576C16.6549 10.1025 16.7513 10.1684 16.8325 10.2514C16.9137 10.3344 16.9781 10.433 17.022 10.5415C17.0659 10.65 17.0886 10.7663 17.0886 10.8838V14.1989C17.0886 14.4361 16.9964 14.6635 16.8325 14.8313C16.6685 14.999 16.4462 15.0932 16.2143 15.0932C15.9824 15.0932 15.7601 14.999 15.5961 14.8313C15.4322 14.6635 15.3401 14.4361 15.3401 14.1989ZM8.46175 14.1989V10.8838C8.45857 10.7642 8.47885 10.6453 8.52136 10.5339C8.56387 10.4225 8.62776 10.3209 8.70934 10.2352C8.79085 10.1495 8.88835 10.0814 8.99605 10.0349C9.10369 9.98841 9.21946 9.96441 9.33633 9.96441C9.45326 9.96441 9.56896 9.98841 9.67667 10.0349C9.78431 10.0814 9.88181 10.1495 9.96338 10.2352C10.0449 10.3209 10.1088 10.4225 10.1513 10.5339C10.1938 10.6453 10.2141 10.7642 10.2109 10.8838V14.1989C10.2141 14.3185 10.1938 14.4374 10.1513 14.5489C10.1088 14.6602 10.0449 14.7618 9.96338 14.8475C9.88181 14.9332 9.78431 15.0012 9.67667 15.0478C9.56896 15.0943 9.45326 15.1183 9.33633 15.1183C9.21946 15.1183 9.10369 15.0943 8.99605 15.0478C8.88835 15.0012 8.79085 14.9332 8.70934 14.8475C8.62776 14.7618 8.56387 14.6602 8.52136 14.5489C8.47885 14.4374 8.45857 14.3185 8.46175 14.1989ZM11.8983 15.6491V9.43762C11.8983 9.20045 11.9904 8.97299 12.1543 8.8053C12.3183 8.63755 12.5407 8.54333 12.7726 8.54333C13.0044 8.54333 13.2268 8.63755 13.3908 8.8053C13.5547 8.97299 13.6468 9.20045 13.6468 9.43762V15.6491C13.6468 15.8862 13.5547 16.1137 13.3908 16.2814C13.2268 16.4491 13.0044 16.5433 12.7726 16.5433C12.5407 16.5433 12.3183 16.4491 12.1543 16.2814C11.9904 16.1137 11.8983 15.8862 11.8983 15.6491ZM36.4579 13.423V11.659C36.4546 11.5944 36.4641 11.5298 36.486 11.469C36.5079 11.4083 36.5416 11.3528 36.5852 11.3058C36.6287 11.2588 36.6812 11.2215 36.7393 11.1959C36.7974 11.1703 36.8601 11.1572 36.9233 11.1572C36.9866 11.1572 37.0492 11.1703 37.1073 11.1959C37.1654 11.2215 37.2179 11.2588 37.2614 11.3058C37.305 11.3528 37.3387 11.4083 37.3606 11.469C37.3825 11.5298 37.3921 11.5944 37.3887 11.659V13.423C37.3921 13.4876 37.3825 13.5523 37.3606 13.613C37.3387 13.6738 37.305 13.7293 37.2614 13.7762C37.2179 13.8232 37.1654 13.8606 37.1073 13.8862C37.0492 13.9118 36.9866 13.9249 36.9233 13.9249C36.8601 13.9249 36.7974 13.9118 36.7393 13.8862C36.6812 13.8606 36.6287 13.8232 36.5852 13.7762C36.5416 13.7293 36.5079 13.6738 36.486 13.613C36.4641 13.5523 36.4546 13.4876 36.4579 13.423ZM32.7978 13.423V11.659C32.7944 11.5944 32.804 11.5298 32.8258 11.469C32.8477 11.4083 32.8815 11.3528 32.925 11.3058C32.9686 11.2588 33.021 11.2215 33.0791 11.1959C33.1372 11.1703 33.1999 11.1572 33.2632 11.1572C33.3265 11.1572 33.3891 11.1703 33.4472 11.1959C33.5053 11.2215 33.5577 11.2588 33.6013 11.3058C33.6448 11.3528 33.6786 11.4083 33.7005 11.469C33.7223 11.5298 33.7319 11.5944 33.7286 11.659V13.423C33.7319 13.4876 33.7223 13.5523 33.7005 13.613C33.6786 13.6738 33.6448 13.7293 33.6013 13.7762C33.5577 13.8232 33.5053 13.8606 33.4472 13.8862C33.3891 13.9118 33.3265 13.9249 33.2632 13.9249C33.1999 13.9249 33.1372 13.9118 33.0791 13.8862C33.021 13.8606 32.9686 13.8232 32.925 13.7762C32.8815 13.7293 32.8477 13.6738 32.8258 13.613C32.804 13.5523 32.7944 13.4876 32.7978 13.423ZM34.6282 14.1949V10.8871C34.6345 10.7652 34.6863 10.6504 34.7728 10.5664C34.8594 10.4824 34.9742 10.4356 35.0936 10.4356C35.2129 10.4356 35.3277 10.4824 35.4143 10.5664C35.5008 10.6504 35.5526 10.7652 35.559 10.8871V14.1949C35.5623 14.2596 35.5527 14.3243 35.5309 14.385C35.509 14.4457 35.4752 14.5012 35.4317 14.5482C35.3881 14.5951 35.3357 14.6326 35.2776 14.6581C35.2195 14.6837 35.1568 14.6969 35.0936 14.6969C35.0303 14.6969 34.9676 14.6837 34.9095 14.6581C34.8514 14.6326 34.799 14.5951 34.7554 14.5482C34.7119 14.5012 34.6781 14.4457 34.6562 14.385C34.6344 14.3243 34.6248 14.2596 34.6282 14.1949Z" fill="white"/>
<path d="M22.0928 20.0633L25.5449 16.5294L21.6449 12.54L18.1902 16.0739L22.0928 20.0633Z" fill="white"/>
<path d="M40.9071 4.84517C37.1026 1.81126 31.6329 2.32722 28.2223 5.81724L26.0266 8.06323L29.9266 12.0526L32.1861 9.74076C33.6031 8.29195 35.8716 8.03198 37.4738 9.2607C37.9738 9.64155 38.3798 10.1366 38.6595 10.7064C38.9393 11.2762 39.085 11.905 39.085 12.5426C39.085 13.1802 38.9393 13.809 38.6595 14.3789C38.3798 14.9487 37.9738 15.4437 37.4738 15.8245C35.8716 17.0533 33.6031 16.792 32.1861 15.3445L29.575 12.6756L29.445 12.5426L25.545 8.55326L25.415 8.42028L20.8188 3.71552C19.6862 2.55577 18.3408 1.63639 16.8598 1.01018C15.3787 0.383981 13.7914 0.0633038 12.1888 0.0665528H3.10115C2.27848 0.0678104 1.4899 0.402876 0.908485 0.998235C0.327077 1.59359 0 2.40059 0 3.24211V12.9549L0.0091 12.9435C0.0602828 14.6968 0.473296 16.4191 1.22104 17.9976C1.96878 19.5761 3.03436 20.9749 4.34785 22.1025C9.22285 26.3079 16.4925 25.7966 21.0041 21.1842L25.5541 16.53L28.2288 19.266C31.6394 22.7547 37.1078 23.272 40.9123 20.2394C42.0613 19.3297 42.9915 18.1628 43.6314 16.8284C44.2712 15.4939 44.604 14.0273 44.604 12.541C44.604 11.0547 44.2712 9.58803 43.6314 8.25359C42.9915 6.91915 42.0613 5.75231 40.9123 4.84251L40.9071 4.84517ZM16.9221 17.3804C15.9902 18.341 14.8 18.9963 13.503 19.2631C12.206 19.5298 10.8607 19.3958 9.63833 18.8783C8.41594 18.3606 7.37165 17.4828 6.63838 16.3564C5.90511 15.23 5.51597 13.9059 5.52041 12.5526V7.59381C5.52041 7.09189 5.71533 6.61054 6.06223 6.25556C6.40914 5.90058 6.87966 5.70106 7.37035 5.70089H12.155C13.0386 5.69512 13.9145 5.86914 14.7319 6.21284C15.5491 6.55653 16.2915 7.06303 16.9156 7.70286L21.645 12.5413L16.9221 17.3804Z" fill="white"/>
<path d="M15.3401 14.1989V10.8838C15.3401 10.7663 15.3627 10.65 15.4066 10.5415C15.4506 10.433 15.515 10.3344 15.5961 10.2514C15.6773 10.1684 15.7737 10.1025 15.8797 10.0576C15.9858 10.0126 16.0995 9.98948 16.2143 9.98948C16.3291 9.98948 16.4428 10.0126 16.5489 10.0576C16.6549 10.1025 16.7513 10.1684 16.8325 10.2514C16.9137 10.3344 16.9781 10.433 17.022 10.5415C17.0659 10.65 17.0886 10.7663 17.0886 10.8838V14.1989C17.0886 14.4361 16.9964 14.6635 16.8325 14.8313C16.6685 14.999 16.4462 15.0932 16.2143 15.0932C15.9824 15.0932 15.7601 14.999 15.5961 14.8313C15.4322 14.6635 15.3401 14.4361 15.3401 14.1989ZM8.46175 14.1989V10.8838C8.45857 10.7642 8.47885 10.6453 8.52136 10.5339C8.56387 10.4225 8.62776 10.3209 8.70934 10.2352C8.79085 10.1495 8.88835 10.0814 8.99605 10.0349C9.10369 9.98841 9.21946 9.96441 9.33633 9.96441C9.45326 9.96441 9.56896 9.98841 9.67667 10.0349C9.78431 10.0814 9.88181 10.1495 9.96338 10.2352C10.0449 10.3209 10.1088 10.4225 10.1513 10.5339C10.1938 10.6453 10.2141 10.7642 10.2109 10.8838V14.1989C10.2141 14.3185 10.1938 14.4374 10.1513 14.5489C10.1088 14.6602 10.0449 14.7618 9.96338 14.8475C9.88181 14.9332 9.78431 15.0012 9.67667 15.0478C9.56896 15.0943 9.45326 15.1183 9.33633 15.1183C9.21946 15.1183 9.10369 15.0943 8.99605 15.0478C8.88835 15.0012 8.79085 14.9332 8.70934 14.8475C8.62776 14.7618 8.56387 14.6602 8.52136 14.5489C8.47885 14.4374 8.45857 14.3185 8.46175 14.1989ZM11.8983 15.6491V9.43762C11.8983 9.20045 11.9904 8.97299 12.1543 8.8053C12.3183 8.63755 12.5407 8.54333 12.7726 8.54333C13.0044 8.54333 13.2268 8.63755 13.3908 8.8053C13.5547 8.97299 13.6468 9.20045 13.6468 9.43762V15.6491C13.6468 15.8862 13.5547 16.1137 13.3908 16.2814C13.2268 16.4491 13.0044 16.5433 12.7726 16.5433C12.5407 16.5433 12.3183 16.4491 12.1543 16.2814C11.9904 16.1137 11.8983 15.8862 11.8983 15.6491ZM36.4579 13.423V11.659C36.4546 11.5944 36.4641 11.5298 36.486 11.469C36.5079 11.4083 36.5416 11.3528 36.5852 11.3058C36.6287 11.2588 36.6812 11.2215 36.7393 11.1959C36.7974 11.1703 36.8601 11.1572 36.9233 11.1572C36.9866 11.1572 37.0492 11.1703 37.1073 11.1959C37.1654 11.2215 37.2179 11.2588 37.2614 11.3058C37.305 11.3528 37.3387 11.4083 37.3606 11.469C37.3825 11.5298 37.3921 11.5944 37.3887 11.659V13.423C37.3921 13.4876 37.3825 13.5523 37.3606 13.613C37.3387 13.6738 37.305 13.7293 37.2614 13.7762C37.2179 13.8232 37.1654 13.8606 37.1073 13.8862C37.0492 13.9118 36.9866 13.9249 36.9233 13.9249C36.8601 13.9249 36.7974 13.9118 36.7393 13.8862C36.6812 13.8606 36.6287 13.8232 36.5852 13.7762C36.5416 13.7293 36.5079 13.6738 36.486 13.613C36.4641 13.5523 36.4546 13.4876 36.4579 13.423ZM32.7978 13.423V11.659C32.7944 11.5944 32.804 11.5298 32.8258 11.469C32.8477 11.4083 32.8815 11.3528 32.925 11.3058C32.9686 11.2588 33.021 11.2215 33.0791 11.1959C33.1372 11.1703 33.1999 11.1572 33.2632 11.1572C33.3265 11.1572 33.3891 11.1703 33.4472 11.1959C33.5053 11.2215 33.5577 11.2588 33.6013 11.3058C33.6448 11.3528 33.6786 11.4083 33.7005 11.469C33.7223 11.5298 33.7319 11.5944 33.7286 11.659V13.423C33.7319 13.4876 33.7223 13.5523 33.7005 13.613C33.6786 13.6738 33.6448 13.7293 33.6013 13.7762C33.5577 13.8232 33.5053 13.8606 33.4472 13.8862C33.3891 13.9118 33.3265 13.9249 33.2632 13.9249C33.1999 13.9249 33.1372 13.9118 33.0791 13.8862C33.021 13.8606 32.9686 13.8232 32.925 13.7762C32.8815 13.7293 32.8477 13.6738 32.8258 13.613C32.804 13.5523 32.7944 13.4876 32.7978 13.423ZM34.6282 14.1949V10.8871C34.6345 10.7652 34.6863 10.6504 34.7728 10.5664C34.8594 10.4824 34.9742 10.4356 35.0936 10.4356C35.2129 10.4356 35.3277 10.4824 35.4143 10.5664C35.5008 10.6504 35.5526 10.7652 35.559 10.8871V14.1949C35.5623 14.2596 35.5527 14.3243 35.5309 14.385C35.509 14.4457 35.4752 14.5012 35.4317 14.5482C35.3881 14.5951 35.3357 14.6326 35.2776 14.6581C35.2195 14.6837 35.1568 14.6969 35.0936 14.6969C35.0303 14.6969 34.9676 14.6837 34.9095 14.6581C34.8514 14.6326 34.799 14.5951 34.7554 14.5482C34.7119 14.5012 34.6781 14.4457 34.6562 14.385C34.6344 14.3243 34.6248 14.2596 34.6282 14.1949Z" fill="white"/>
<path d="M22.0928 20.0633L25.5449 16.5294L21.6449 12.54L18.1902 16.0739L22.0928 20.0633Z" fill="white"/>
</svg>
